<svg xmlns="http://www.w3.org/2000/svg" viewBox="0 0 100 100" width="100" height="100">
  <!-- Achtergrond cirkel -->
  <circle cx="50" cy="50" r="48" fill="#f5a623" />

  <!-- Bus body -->
  <rect x="14" y="32" width="72" height="38" rx="7" ry="7" fill="#1e1d1a" />

  <!-- Voorruit -->
  <rect x="16" y="35" width="20" height="16" rx="3" ry="3" fill="#fde9ba" opacity="0.9" />

  <!-- Zijramen -->
  <rect x="40" y="35" width="14" height="16" rx="3" ry="3" fill="#fde9ba" opacity="0.9" />
  <rect x="58" y="35" width="14" height="16" rx="3" ry="3" fill="#fde9ba" opacity="0.9" />

  <!-- Deur -->
  <rect x="76" y="37" width="8" height="22" rx="2" ry="2" fill="#3a3730" />
  <circle cx="80" cy="48" r="1.2" fill="#f5a623" />

  <!-- Accent stripe -->
  <rect x="14" y="55" width="72" height="5" rx="0" fill="#f5a623" opacity="0.75" />

  <!-- Onderkant / bumpers -->
  <rect x="18" y="68" width="64" height="4" rx="2" fill="#3a3730" />

  <!-- Wielen -->
  <circle cx="30" cy="72" r="8" fill="#1e1d1a" />
  <circle cx="30" cy="72" r="4.5" fill="#3a3730" />
  <circle cx="30" cy="72" r="2" fill="#f5a623" />

  <circle cx="70" cy="72" r="8" fill="#1e1d1a" />
  <circle cx="70" cy="72" r="4.5" fill="#3a3730" />
  <circle cx="70" cy="72" r="2" fill="#f5a623" />

  <!-- Koplampen -->
  <rect x="14" y="40" width="4" height="6" rx="1" fill="#fde9ba" opacity="0.95" />
</svg>
